# xmcd
#
# Track frame offsets:
#	150
#	21791
#	44908
#	66302
#	86584
#	109487
#	129187
#
# Disc length: 1982 seconds
#
# Revision: 4050403785
# Processed by: cddbd v1.5.2PL0 Copyright (c) Steve Scherf et al.
# Submitted via: EZCDAudioConverter 8.5.0.1
#
DISCID=6107bc07
DTITLE=Aaron Lewis - Town Line [EP]
DYEAR=2011
DGENRE=Country
TTITLE0=Aaron Lewis - The Story Never Ends
TTITLE1=Aaron Lewis - Vicious Circles
TTITLE2=Aaron Lewis Feat. George Jones, Chris Young and Charlie Daniels - Countr
TTITLE2=y Boy
TTITLE3=Aaron Lewis - Tangled Up In You
TTITLE4=Aaron Lewis - Massachusetts
TTITLE5=Aaron Lewis - Country Boy [Radio Edit]
TTITLE6=Aaron Lewis - Country Boy [Acoustic Version]
EXTD=
EXTT0=
EXTT1=
EXTT2=
EXTT3=
EXTT4=
EXTT5=
EXTT6=
PLAYORDER=
